# xmcd CD database file
#
# Track frame offsets:
#	150
#	15940
#	32122
#	48521
#	66136
#	83879
#	102520
#	127654
#	149156
#	164677
#	181841
#	199214
#	213037
#	226792
#	236276
#	252616
#	270261
#	295320
#	316815
#	332209
#	346007
#
# Disc length: 4761 seconds
#
# Revision: 0
# Processed by: cddbd v1.5.2PL0 Copyright (c) Steve Scherf et al.
# Submitted via: CDex 1.51
#
DISCID=28129715
DTITLE=Coleman Hawkins - The Genius of
DYEAR=1957
DGENRE=Jazz
TTITLE0=I'll Never Be The Same
TTITLE1=You're Blasé
TTITLE2=I Wished on the Moon
TTITLE3=How Long Has This Been Going On?
TTITLE4=Like Someone in Love
TTITLE5=My Melancholy Baby
TTITLE6=Ill wind (You're blowing me no good)
TTITLE7=In a mellow tone
TTITLE8=There's no you
TTITLE9=The World Is Waiting for the Sunrise
TTITLE10=Somebody loves me
TTITLE11=Blues for Rene
TTITLE12=Begin the Beguine (previously unissued)
TTITLE13=I never had a chance (previously unissued)
TTITLE14=I wished on the moon (master takes in monaural sound)
TTITLE15=Like someone in love (master takes in monaural sound)
TTITLE16=Ill wind (You're blowing me no good) (master takes in monaural sound)
TTITLE17=In a mellow tone (master takes in monaural sound)
TTITLE18=There's no you (master takes in monaural sound)
TTITLE19=Blues for Rene (master takes in monaural sound)
TTITLE20=Time on my hands
EXTD=YEAR: 1957
EXTT0=
EXTT1=
EXTT2=
EXTT3=
EXTT4=
EXTT5=
EXTT6=
EXTT7=
EXTT8=
EXTT9=
EXTT10=
EXTT11=
EXTT12=
EXTT13=
EXTT14=
EXTT15=
EXTT16=
EXTT17=
EXTT18=
EXTT19=
EXTT20=
PLAYORDER=
